<svg xmlns="http://www.w3.org/2000/svg" xmlns:xlink="http://www.w3.org/1999/xlink" width="512" zoomAndPan="magnify" viewBox="0 0 384 383.999986" height="512" preserveAspectRatio="xMidYMid meet" version="1.0"><defs><clipPath id="569a1ddbe1"><path d="M 167 69.121094 L 212 69.121094 L 212 304 L 167 304 Z M 167 69.121094 " clip-rule="nonzero"/></clipPath><clipPath id="a418c096c6"><path d="M 208 236 L 345.898438 236 L 345.898438 315 L 208 315 Z M 208 236 " clip-rule="nonzero"/></clipPath><clipPath id="0d51790138"><path d="M 38.398438 241 L 178 241 L 178 315 L 38.398438 315 Z M 38.398438 241 " clip-rule="nonzero"/></clipPath></defs><g clip-path="url(#569a1ddbe1)"><path fill="#c0a472" d="M 211.261719 179.894531 C 211.738281 226.207031 207.183594 267.289062 191.71875 303.5 C 179.203125 270.78125 167.667969 235.203125 167.253906 195.023438 C 167.058594 184.28125 167.414062 173.558594 168.316406 162.855469 C 169.222656 152.148438 170.671875 141.515625 172.667969 130.960938 C 174.660156 120.402344 177.191406 109.976562 180.257812 99.679688 C 183.324219 89.382812 186.90625 79.269531 191.011719 69.34375 C 197.621094 87.023438 202.628906 105.152344 206.03125 123.722656 C 209.429688 142.289062 211.175781 161.015625 211.261719 179.894531 Z M 211.261719 179.894531 " fill-opacity="1" fill-rule="nonzero"/></g><path fill="#c0a472" d="M 298.339844 138.050781 C 291.246094 189.65625 263.132812 246.445312 216.472656 294.613281 C 211.269531 299.980469 205.953125 305.128906 200.523438 310.058594 C 207.613281 258.453125 235.730469 201.660156 282.394531 153.488281 C 287.597656 148.121094 292.914062 142.976562 298.339844 138.050781 Z M 298.339844 138.050781 " fill-opacity="1" fill-rule="nonzero"/><path fill="#c0a472" d="M 80.304688 141.601562 C 89.074219 192.949219 119.023438 248.792969 167.226562 295.417969 C 172.605469 300.621094 178.085938 305.59375 183.667969 310.332031 C 174.902344 258.984375 144.949219 203.148438 96.746094 156.515625 C 91.367188 151.320312 85.886719 146.347656 80.304688 141.601562 Z M 80.304688 141.601562 " fill-opacity="1" fill-rule="nonzero"/><g clip-path="url(#a418c096c6)"><path fill="#c0a472" d="M 345.234375 236.816406 C 324.203125 268.59375 273.035156 298.058594 208.019531 314.183594 C 224.375 300.730469 241.589844 288.488281 259.664062 277.453125 C 286.691406 260.757812 315.214844 247.214844 345.234375 236.816406 Z M 345.234375 236.816406 " fill-opacity="1" fill-rule="nonzero"/></g><g clip-path="url(#0d51790138)"><path fill="#c0a472" d="M 38.203125 241.824219 C 60.253906 272.875 112.359375 300.679688 177.863281 314.652344 C 161.082031 301.738281 143.480469 290.066406 125.054688 279.628906 C 97.5 263.828125 68.546875 251.226562 38.203125 241.824219 Z M 38.203125 241.824219 " fill-opacity="1" fill-rule="nonzero"/></g></svg>