<?xml version="1.0" encoding="UTF-8" standalone="no"?>
<!-- Mortalis BIMI logo — SVG Tiny 1.2, 512x512, solid fill only -->
<svg version="1.2" baseProfile="tiny" xmlns="http://www.w3.org/2000/svg"
     width="512" height="512" viewBox="0 0 512 512">
  <g fill="#C0A472">
    <path d="M256 98c28 60 28 174 0 274c-28-100-28-214 0-274z"/>
    <path d="M204 128c-44 41-94 136-102 212c66-56 125-148 102-212z"/>
    <path d="M308 128c-23 64 36 156 102 212c-8-76-58-171-102-212z"/>
    <path d="M222 320c-54-21-128-26-164-21c47 59 152 95 217 103c-21-22-36-54-53-82z"/>
    <path d="M290 320c-17 28-32 60-53 82c65-8 170-44 217-103c-36-5-110 0-164 21z"/>
    <path d="M164 176c-55 33-98 88-120 120c61 0 131-31 170-64c-18-20-35-39-50-56z"/>
    <path d="M348 176c-15 17-32 36-50 56c39 33 109 64 170 64c-22-32-65-87-120-120z"/>
  </g>
</svg>
